# xmcd
#
# Track frame offsets: 
#        150
#        13903
#        25405
#        38155
#        55744
#        69820
#        81818
#        97852
#        110968
#        122862
#        140990
#
# Disc length: 2086 seconds
#
# Revision: 0
# Processed by: cddbd v1.5.2PL0 Copyright (c) Steve Scherf et al.
# Submitted via: ExactAudioCopy v1.0b1
#
DISCID=9708240b
DTITLE=David Allan Coe - Tennessee Whiskey
DYEAR=1981
DGENRE=Country
TTITLE0=Tennessee Whiskey
TTITLE1=If I Knew
TTITLE2=I've Given 'Bout All I Can Take
TTITLE3=Pledging My Love
TTITLE4=I'll Always Be A Fool For You
TTITLE5=Sittin' On The Dock Of The Bay
TTITLE6=Juanita
TTITLE7=We Got A Bad Thing Goin'
TTITLE8=D-R-U-N-K
TTITLE9=Little Orphan Annie
TTITLE10=Bright Morning Light
EXTD=
EXTT0=
EXTT1=
EXTT2=
EXTT3=
EXTT4=
EXTT5=
EXTT6=
EXTT7=
EXTT8=
EXTT9=
EXTT10=
PLAYORDER=
